<svg width="134" height="19" viewBox="0 0 134 19" fill="none" xmlns="http://www.w3.org/2000/svg">
<path d="M7.95455 8.57955L6.07955 8.78409C6.02652 8.5947 5.93371 8.41667 5.80114 8.25C5.67235 8.08333 5.49811 7.94886 5.27841 7.84659C5.05871 7.74432 4.78977 7.69318 4.47159 7.69318C4.04356 7.69318 3.68371 7.78598 3.39205 7.97159C3.10417 8.1572 2.96212 8.39773 2.96591 8.69318C2.96212 8.94697 3.05492 9.15341 3.24432 9.3125C3.4375 9.47159 3.75568 9.60227 4.19886 9.70455L5.6875 10.0227C6.51326 10.2008 7.12689 10.483 7.52841 10.8693C7.93371 11.2557 8.13826 11.7614 8.14205 12.3864C8.13826 12.9356 7.97727 13.4205 7.65909 13.8409C7.3447 14.2576 6.9072 14.5833 6.34659 14.8182C5.78598 15.053 5.14205 15.1705 4.41477 15.1705C3.34659 15.1705 2.48674 14.947 1.83523 14.5C1.18371 14.0492 0.795455 13.4223 0.670455 12.6193L2.67614 12.4261C2.76705 12.8201 2.96023 13.1174 3.25568 13.3182C3.55114 13.5189 3.93561 13.6193 4.40909 13.6193C4.89773 13.6193 5.28977 13.5189 5.58523 13.3182C5.88447 13.1174 6.03409 12.8693 6.03409 12.5739C6.03409 12.3239 5.9375 12.1174 5.74432 11.9545C5.55492 11.7917 5.25947 11.6667 4.85795 11.5795L3.36932 11.267C2.5322 11.0928 1.91288 10.7992 1.51136 10.3864C1.10985 9.9697 0.910985 9.44318 0.914773 8.80682C0.910985 8.26894 1.05682 7.80303 1.35227 7.40909C1.65152 7.01136 2.06629 6.70455 2.59659 6.48864C3.13068 6.26894 3.74621 6.15909 4.44318 6.15909C5.46591 6.15909 6.27083 6.37689 6.85795 6.8125C7.44886 7.24811 7.81439 7.83712 7.95455 8.57955ZM11.8949 9.88636V15H9.83807V3.36364H11.8494V7.75568H11.9517C12.1563 7.26326 12.4725 6.875 12.9006 6.59091C13.3324 6.30303 13.8816 6.15909 14.5483 6.15909C15.1544 6.15909 15.6828 6.28598 16.1335 6.53977C16.5843 6.79356 16.9328 7.16477 17.179 7.65341C17.429 8.14205 17.554 8.73864 17.554 9.44318V15H15.4972V9.76136C15.4972 9.17424 15.3456 8.7178 15.0426 8.39205C14.7434 8.0625 14.3229 7.89773 13.7812 7.89773C13.4176 7.89773 13.0919 7.97727 12.804 8.13636C12.5199 8.29167 12.2964 8.51705 12.1335 8.8125C11.9744 9.10795 11.8949 9.46591 11.8949 9.88636ZM19.6506 15V6.27273H21.6449V7.72727H21.7358C21.8949 7.22348 22.1676 6.83523 22.554 6.5625C22.9441 6.28598 23.3892 6.14773 23.8892 6.14773C24.0028 6.14773 24.1297 6.15341 24.2699 6.16477C24.4138 6.17235 24.5331 6.18561 24.6278 6.20455V8.09659C24.5407 8.06629 24.4025 8.03977 24.2131 8.01705C24.0275 7.99053 23.8475 7.97727 23.6733 7.97727C23.2983 7.97727 22.9612 8.05871 22.6619 8.22159C22.3665 8.38068 22.1335 8.60227 21.9631 8.88636C21.7926 9.17045 21.7074 9.49811 21.7074 9.86932V15H19.6506ZM29.4986 15.1705C28.6236 15.1705 27.8679 14.9886 27.2315 14.625C26.599 14.2576 26.1122 13.7386 25.7713 13.0682C25.4304 12.3939 25.2599 11.6004 25.2599 10.6875C25.2599 9.78977 25.4304 9.00189 25.7713 8.32386C26.116 7.64205 26.5971 7.11174 27.2145 6.73295C27.8319 6.35038 28.5573 6.15909 29.3906 6.15909C29.9285 6.15909 30.4361 6.24621 30.9134 6.42045C31.3944 6.59091 31.8187 6.85606 32.1861 7.21591C32.5573 7.57576 32.849 8.03409 33.0611 8.59091C33.2732 9.14394 33.3793 9.80303 33.3793 10.5682V11.1989H26.2259V9.8125H31.4077C31.4039 9.41856 31.3187 9.06818 31.152 8.76136C30.9853 8.45076 30.7524 8.20644 30.4531 8.02841C30.1577 7.85038 29.813 7.76136 29.419 7.76136C28.9986 7.76136 28.6293 7.86364 28.3111 8.06818C27.9929 8.26894 27.7448 8.53409 27.5668 8.86364C27.3925 9.18939 27.3035 9.54735 27.2997 9.9375V11.1477C27.2997 11.6553 27.3925 12.0909 27.5781 12.4545C27.7637 12.8144 28.0232 13.0909 28.3565 13.2841C28.6899 13.4735 29.08 13.5682 29.527 13.5682C29.8262 13.5682 30.0971 13.5265 30.3395 13.4432C30.5819 13.3561 30.7921 13.2292 30.9702 13.0625C31.1482 12.8958 31.2827 12.6894 31.3736 12.4432L33.294 12.6591C33.1728 13.1667 32.9418 13.6098 32.6009 13.9886C32.2637 14.3636 31.8319 14.6553 31.3054 14.8636C30.7789 15.0682 30.1766 15.1705 29.4986 15.1705ZM36.1477 18.2727C35.8674 18.2727 35.608 18.25 35.3693 18.2045C35.1345 18.1629 34.947 18.1136 34.8068 18.0568L35.2841 16.4545C35.5833 16.5417 35.8504 16.5833 36.0852 16.5795C36.3201 16.5758 36.5265 16.5019 36.7045 16.358C36.8864 16.2178 37.0398 15.983 37.1648 15.6534L37.3409 15.1818L34.1761 6.27273H36.358L38.3693 12.8636H38.4602L40.4773 6.27273H42.6648L39.1705 16.0568C39.0076 16.5189 38.7917 16.9148 38.5227 17.2443C38.2538 17.5777 37.9242 17.8314 37.5341 18.0057C37.1477 18.1837 36.6856 18.2727 36.1477 18.2727ZM46.3494 15.1761C45.7964 15.1761 45.2983 15.0777 44.8551 14.8807C44.4157 14.6799 44.0672 14.3845 43.8097 13.9943C43.5559 13.6042 43.429 13.1231 43.429 12.5511C43.429 12.0587 43.5199 11.6515 43.7017 11.3295C43.8835 11.0076 44.1316 10.75 44.446 10.5568C44.7604 10.3636 45.1146 10.2178 45.5085 10.1193C45.9063 10.017 46.3172 9.94318 46.7415 9.89773C47.2528 9.8447 47.6676 9.79735 47.9858 9.75568C48.304 9.71023 48.535 9.64205 48.679 9.55114C48.8267 9.45644 48.9006 9.31061 48.9006 9.11364V9.07955C48.9006 8.65152 48.7737 8.32008 48.5199 8.08523C48.2661 7.85038 47.9006 7.73295 47.4233 7.73295C46.9195 7.73295 46.5199 7.8428 46.2244 8.0625C45.9328 8.2822 45.7358 8.54167 45.6335 8.84091L43.7131 8.56818C43.8646 8.03788 44.1146 7.5947 44.4631 7.23864C44.8116 6.87879 45.2377 6.60985 45.7415 6.43182C46.2453 6.25 46.8021 6.15909 47.4119 6.15909C47.8324 6.15909 48.2509 6.20833 48.6676 6.30682C49.0843 6.4053 49.465 6.56818 49.8097 6.79545C50.1544 7.01894 50.4309 7.32386 50.6392 7.71023C50.8513 8.09659 50.9574 8.57955 50.9574 9.15909V15H48.9801V13.8011H48.9119C48.7869 14.0436 48.6108 14.2708 48.3835 14.483C48.16 14.6913 47.8778 14.8598 47.5369 14.9886C47.1998 15.1136 46.804 15.1761 46.3494 15.1761ZM46.8835 13.6648C47.2964 13.6648 47.6544 13.5833 47.9574 13.4205C48.2604 13.2538 48.4934 13.0341 48.6562 12.7614C48.8229 12.4886 48.9062 12.1913 48.9062 11.8693V10.8409C48.8419 10.8939 48.732 10.9432 48.5767 10.9886C48.4252 11.0341 48.2547 11.0739 48.0653 11.108C47.8759 11.142 47.6884 11.1723 47.5028 11.1989C47.3172 11.2254 47.1563 11.2481 47.0199 11.267C46.7131 11.3087 46.4384 11.3769 46.196 11.4716C45.9536 11.5663 45.7623 11.6989 45.6222 11.8693C45.482 12.036 45.4119 12.2519 45.4119 12.517C45.4119 12.8958 45.5502 13.1818 45.8267 13.375C46.1032 13.5682 46.4555 13.6648 46.8835 13.6648ZM59.9233 8.57955L58.0483 8.78409C57.9953 8.5947 57.9025 8.41667 57.7699 8.25C57.6411 8.08333 57.4669 7.94886 57.2472 7.84659C57.0275 7.74432 56.7585 7.69318 56.4403 7.69318C56.0123 7.69318 55.6525 7.78598 55.3608 7.97159C55.0729 8.1572 54.9309 8.39773 54.9347 8.69318C54.9309 8.94697 55.0237 9.15341 55.2131 9.3125C55.4063 9.47159 55.7244 9.60227 56.1676 9.70455L57.6562 10.0227C58.482 10.2008 59.0956 10.483 59.4972 10.8693C59.9025 11.2557 60.107 11.7614 60.1108 12.3864C60.107 12.9356 59.946 13.4205 59.6278 13.8409C59.3134 14.2576 58.8759 14.5833 58.3153 14.8182C57.7547 15.053 57.1108 15.1705 56.3835 15.1705C55.3153 15.1705 54.4555 14.947 53.804 14.5C53.1525 14.0492 52.7642 13.4223 52.6392 12.6193L54.6449 12.4261C54.7358 12.8201 54.929 13.1174 55.2244 13.3182C55.5199 13.5189 55.9044 13.6193 56.3778 13.6193C56.8665 13.6193 57.2585 13.5189 57.554 13.3182C57.8532 13.1174 58.0028 12.8693 58.0028 12.5739C58.0028 12.3239 57.9063 12.1174 57.7131 11.9545C57.5237 11.7917 57.2282 11.6667 56.8267 11.5795L55.3381 11.267C54.5009 11.0928 53.8816 10.7992 53.4801 10.3864C53.0786 9.9697 52.8797 9.44318 52.8835 8.80682C52.8797 8.26894 53.0256 7.80303 53.321 7.40909C53.6203 7.01136 54.035 6.70455 54.5653 6.48864C55.0994 6.26894 55.715 6.15909 56.4119 6.15909C57.4347 6.15909 58.2396 6.37689 58.8267 6.8125C59.4176 7.24811 59.7831 7.83712 59.9233 8.57955ZM63.0739 15.125C62.7292 15.125 62.4337 15.0038 62.1875 14.7614C61.9413 14.5189 61.8201 14.2235 61.8239 13.875C61.8201 13.5341 61.9413 13.2424 62.1875 13C62.4337 12.7576 62.7292 12.6364 63.0739 12.6364C63.4072 12.6364 63.697 12.7576 63.9432 13C64.1932 13.2424 64.3201 13.5341 64.3239 13.875C64.3201 14.1061 64.2595 14.3163 64.142 14.5057C64.0284 14.6951 63.8769 14.8466 63.6875 14.9602C63.5019 15.0701 63.2973 15.125 63.0739 15.125Z" fill="#A3A3A3"/>
<path d="M70.5682 15.1761C70.0152 15.1761 69.517 15.0777 69.0739 14.8807C68.6345 14.6799 68.286 14.3845 68.0284 13.9943C67.7746 13.6042 67.6477 13.1231 67.6477 12.5511C67.6477 12.0587 67.7386 11.6515 67.9205 11.3295C68.1023 11.0076 68.3504 10.75 68.6648 10.5568C68.9792 10.3636 69.3333 10.2178 69.7273 10.1193C70.125 10.017 70.536 9.94318 70.9602 9.89773C71.4716 9.8447 71.8864 9.79735 72.2045 9.75568C72.5227 9.71023 72.7538 9.64205 72.8977 9.55114C73.0455 9.45644 73.1193 9.31061 73.1193 9.11364V9.07955C73.1193 8.65152 72.9924 8.32008 72.7386 8.08523C72.4848 7.85038 72.1193 7.73295 71.642 7.73295C71.1383 7.73295 70.7386 7.8428 70.4432 8.0625C70.1515 8.2822 69.9545 8.54167 69.8523 8.84091L67.9318 8.56818C68.0833 8.03788 68.3333 7.5947 68.6818 7.23864C69.0303 6.87879 69.4564 6.60985 69.9602 6.43182C70.464 6.25 71.0208 6.15909 71.6307 6.15909C72.0511 6.15909 72.4697 6.20833 72.8864 6.30682C73.303 6.4053 73.6837 6.56818 74.0284 6.79545C74.3731 7.01894 74.6496 7.32386 74.858 7.71023C75.0701 8.09659 75.1761 8.57955 75.1761 9.15909V15H73.1989V13.8011H73.1307C73.0057 14.0436 72.8295 14.2708 72.6023 14.483C72.3788 14.6913 72.0966 14.8598 71.7557 14.9886C71.4186 15.1136 71.0227 15.1761 70.5682 15.1761ZM71.1023 13.6648C71.5152 13.6648 71.8731 13.5833 72.1761 13.4205C72.4792 13.2538 72.7121 13.0341 72.875 12.7614C73.0417 12.4886 73.125 12.1913 73.125 11.8693V10.8409C73.0606 10.8939 72.9508 10.9432 72.7955 10.9886C72.6439 11.0341 72.4735 11.0739 72.2841 11.108C72.0947 11.142 71.9072 11.1723 71.7216 11.1989C71.536 11.2254 71.375 11.2481 71.2386 11.267C70.9318 11.3087 70.6572 11.3769 70.4148 11.4716C70.1723 11.5663 69.9811 11.6989 69.8409 11.8693C69.7008 12.036 69.6307 12.2519 69.6307 12.517C69.6307 12.8958 69.7689 13.1818 70.0455 13.375C70.322 13.5682 70.6742 13.6648 71.1023 13.6648ZM81.0511 15.1705C80.1799 15.1705 79.4318 14.9792 78.8068 14.5966C78.1856 14.214 77.7064 13.6856 77.3693 13.0114C77.036 12.3333 76.8693 11.553 76.8693 10.6705C76.8693 9.78409 77.0398 9.00189 77.3807 8.32386C77.7216 7.64205 78.2027 7.11174 78.8239 6.73295C79.4489 6.35038 80.1875 6.15909 81.0398 6.15909C81.7481 6.15909 82.375 6.28977 82.9205 6.55114C83.4697 6.80871 83.9072 7.17424 84.233 7.64773C84.5587 8.11742 84.7443 8.66667 84.7898 9.29545H82.8239C82.7443 8.875 82.5549 8.52462 82.2557 8.24432C81.9602 7.96023 81.5644 7.81818 81.0682 7.81818C80.6477 7.81818 80.2784 7.93182 79.9602 8.15909C79.642 8.38258 79.3939 8.70455 79.2159 9.125C79.0417 9.54545 78.9545 10.0492 78.9545 10.6364C78.9545 11.2311 79.0417 11.7424 79.2159 12.1705C79.3902 12.5947 79.6345 12.9223 79.9489 13.1534C80.267 13.3807 80.6402 13.4943 81.0682 13.4943C81.3712 13.4943 81.642 13.4375 81.8807 13.3239C82.1231 13.2064 82.3258 13.0379 82.4886 12.8182C82.6515 12.5985 82.7633 12.3314 82.8239 12.017H84.7898C84.7405 12.6345 84.5587 13.1818 84.2443 13.6591C83.9299 14.1326 83.5019 14.5038 82.9602 14.7727C82.4186 15.0379 81.7822 15.1705 81.0511 15.1705ZM88.5355 9.88636V15H86.4787V3.36364H88.4901V7.75568H88.5923C88.7969 7.26326 89.1132 6.875 89.5412 6.59091C89.973 6.30303 90.5223 6.15909 91.1889 6.15909C91.795 6.15909 92.3234 6.28598 92.7741 6.53977C93.2249 6.79356 93.5734 7.16477 93.8196 7.65341C94.0696 8.14205 94.1946 8.73864 94.1946 9.44318V15H92.1378V9.76136C92.1378 9.17424 91.9863 8.7178 91.6832 8.39205C91.384 8.0625 90.9635 7.89773 90.4219 7.89773C90.0582 7.89773 89.7325 7.97727 89.4446 8.13636C89.1605 8.29167 88.937 8.51705 88.7741 8.8125C88.6151 9.10795 88.5355 9.46591 88.5355 9.88636ZM98.8026 15.1761C98.2495 15.1761 97.7514 15.0777 97.3082 14.8807C96.8688 14.6799 96.5204 14.3845 96.2628 13.9943C96.009 13.6042 95.8821 13.1231 95.8821 12.5511C95.8821 12.0587 95.973 11.6515 96.1548 11.3295C96.3366 11.0076 96.5848 10.75 96.8991 10.5568C97.2135 10.3636 97.5677 10.2178 97.9616 10.1193C98.3594 10.017 98.7704 9.94318 99.1946 9.89773C99.706 9.8447 100.121 9.79735 100.439 9.75568C100.757 9.71023 100.988 9.64205 101.132 9.55114C101.28 9.45644 101.354 9.31061 101.354 9.11364V9.07955C101.354 8.65152 101.227 8.32008 100.973 8.08523C100.719 7.85038 100.354 7.73295 99.8764 7.73295C99.3726 7.73295 98.973 7.8428 98.6776 8.0625C98.3859 8.2822 98.1889 8.54167 98.0866 8.84091L96.1662 8.56818C96.3177 8.03788 96.5677 7.5947 96.9162 7.23864C97.2647 6.87879 97.6908 6.60985 98.1946 6.43182C98.6984 6.25 99.2552 6.15909 99.8651 6.15909C100.286 6.15909 100.704 6.20833 101.121 6.30682C101.537 6.4053 101.918 6.56818 102.263 6.79545C102.607 7.01894 102.884 7.32386 103.092 7.71023C103.304 8.09659 103.411 8.57955 103.411 9.15909V15H101.433V13.8011H101.365C101.24 14.0436 101.064 14.2708 100.837 14.483C100.613 14.6913 100.331 14.8598 99.9901 14.9886C99.6529 15.1136 99.2571 15.1761 98.8026 15.1761ZM99.3366 13.6648C99.7495 13.6648 100.107 13.5833 100.411 13.4205C100.714 13.2538 100.946 13.0341 101.109 12.7614C101.276 12.4886 101.359 12.1913 101.359 11.8693V10.8409C101.295 10.8939 101.185 10.9432 101.03 10.9886C100.878 11.0341 100.708 11.0739 100.518 11.108C100.329 11.142 100.142 11.1723 99.956 11.1989C99.7704 11.2254 99.6094 11.2481 99.473 11.267C99.1662 11.3087 98.8916 11.3769 98.6491 11.4716C98.4067 11.5663 98.2154 11.6989 98.0753 11.8693C97.9351 12.036 97.8651 12.2519 97.8651 12.517C97.8651 12.8958 98.0033 13.1818 98.2798 13.375C98.5563 13.5682 98.9086 13.6648 99.3366 13.6648ZM105.479 15V6.27273H107.473V7.72727H107.564C107.723 7.22348 107.996 6.83523 108.382 6.5625C108.772 6.28598 109.217 6.14773 109.717 6.14773C109.831 6.14773 109.958 6.15341 110.098 6.16477C110.242 6.17235 110.361 6.18561 110.456 6.20455V8.09659C110.369 8.06629 110.231 8.03977 110.041 8.01705C109.856 7.99053 109.676 7.97727 109.501 7.97727C109.126 7.97727 108.789 8.05871 108.49 8.22159C108.195 8.38068 107.962 8.60227 107.791 8.88636C107.621 9.17045 107.536 9.49811 107.536 9.86932V15H105.479ZM113.366 18.2727C113.086 18.2727 112.827 18.25 112.588 18.2045C112.353 18.1629 112.166 18.1136 112.026 18.0568L112.503 16.4545C112.802 16.5417 113.069 16.5833 113.304 16.5795C113.539 16.5758 113.745 16.5019 113.923 16.358C114.105 16.2178 114.259 15.983 114.384 15.6534L114.56 15.1818L111.395 6.27273H113.577L115.588 12.8636H115.679L117.696 6.27273H119.884L116.389 16.0568C116.226 16.5189 116.01 16.9148 115.741 17.2443C115.473 17.5777 115.143 17.8314 114.753 18.0057C114.366 18.1837 113.904 18.2727 113.366 18.2727ZM123.568 15.1761C123.015 15.1761 122.517 15.0777 122.074 14.8807C121.634 14.6799 121.286 14.3845 121.028 13.9943C120.775 13.6042 120.648 13.1231 120.648 12.5511C120.648 12.0587 120.739 11.6515 120.92 11.3295C121.102 11.0076 121.35 10.75 121.665 10.5568C121.979 10.3636 122.333 10.2178 122.727 10.1193C123.125 10.017 123.536 9.94318 123.96 9.89773C124.472 9.8447 124.886 9.79735 125.205 9.75568C125.523 9.71023 125.754 9.64205 125.898 9.55114C126.045 9.45644 126.119 9.31061 126.119 9.11364V9.07955C126.119 8.65152 125.992 8.32008 125.739 8.08523C125.485 7.85038 125.119 7.73295 124.642 7.73295C124.138 7.73295 123.739 7.8428 123.443 8.0625C123.152 8.2822 122.955 8.54167 122.852 8.84091L120.932 8.56818C121.083 8.03788 121.333 7.5947 121.682 7.23864C122.03 6.87879 122.456 6.60985 122.96 6.43182C123.464 6.25 124.021 6.15909 124.631 6.15909C125.051 6.15909 125.47 6.20833 125.886 6.30682C126.303 6.4053 126.684 6.56818 127.028 6.79545C127.373 7.01894 127.65 7.32386 127.858 7.71023C128.07 8.09659 128.176 8.57955 128.176 9.15909V15H126.199V13.8011H126.131C126.006 14.0436 125.83 14.2708 125.602 14.483C125.379 14.6913 125.097 14.8598 124.756 14.9886C124.419 15.1136 124.023 15.1761 123.568 15.1761ZM124.102 13.6648C124.515 13.6648 124.873 13.5833 125.176 13.4205C125.479 13.2538 125.712 13.0341 125.875 12.7614C126.042 12.4886 126.125 12.1913 126.125 11.8693V10.8409C126.061 10.8939 125.951 10.9432 125.795 10.9886C125.644 11.0341 125.473 11.0739 125.284 11.108C125.095 11.142 124.907 11.1723 124.722 11.1989C124.536 11.2254 124.375 11.2481 124.239 11.267C123.932 11.3087 123.657 11.3769 123.415 11.4716C123.172 11.5663 122.981 11.6989 122.841 11.8693C122.701 12.036 122.631 12.2519 122.631 12.517C122.631 12.8958 122.769 13.1818 123.045 13.375C123.322 13.5682 123.674 13.6648 124.102 13.6648ZM131.511 15.125C131.167 15.125 130.871 15.0038 130.625 14.7614C130.379 14.5189 130.258 14.2235 130.261 13.875C130.258 13.5341 130.379 13.2424 130.625 13C130.871 12.7576 131.167 12.6364 131.511 12.6364C131.845 12.6364 132.134 12.7576 132.381 13C132.631 13.2424 132.758 13.5341 132.761 13.875C132.758 14.1061 132.697 14.3163 132.58 14.5057C132.466 14.6951 132.314 14.8466 132.125 14.9602C131.939 15.0701 131.735 15.125 131.511 15.125Z" fill="black"/>
</svg>
